<svg class="svg-icon" style="width: 1em;height: 1em;vertical-align: middle;fill: currentColor;overflow: hidden;" viewBox="0 0 1024 1024" version="1.1" xmlns="http://www.w3.org/2000/svg"><path d="M0 0h1024v1024H0z" fill="#333333" opacity=".01" /><path d="M921.6 499.5584a50.688 50.688 0 0 1 50.8416 44.032l0.3584 5.7856v373.6064c0 25.5488-19.7632 46.592-45.2096 49.4592L921.6 972.8H102.4a50.688 50.688 0 0 1-50.8416-44.032L51.2 922.9824v-373.4528a50.5344 50.5344 0 0 1 51.2-49.8176 50.688 50.688 0 0 1 50.8416 44.032l0.3584 5.7856v323.6352h716.8V549.376c0-25.6 19.7632-46.592 45.2096-49.5104L921.6 499.5584zM512 51.2c28.2624 0 51.2 20.8384 51.2 46.592v475.904l163.9936-158.5664 5.12-4.3008a55.3984 55.3984 0 0 1 71.1168 4.3008 50.688 50.688 0 0 1 0 73.5232l-253.3376 244.736-5.0688 4.352c-21.1456 15.872-51.712 14.3872-71.168-4.352l-253.2864-244.736-4.4544-4.9152a50.6368 50.6368 0 0 1 4.4544-68.608l5.12-4.3008a55.3984 55.3984 0 0 1 71.1168 4.3008L460.8 573.696V97.792l0.3584-5.4272C464.0768 69.12 485.7344 51.2 512 51.2z" fill="#333333" /></svg>